<?xml version="1.0" encoding="UTF-8" standalone="no"?>
<!-- Created with Inkscape (http://www.inkscape.org/) -->

<svg
   width="128"
   height="128"
   viewBox="0 0 33.866666 33.866666"
   version="1.1"
   id="svg1908"
   inkscape:version="1.2.1 (9c6d41e410, 2022-07-14)"
   sodipodi:docname="text-rust.svg"
   xmlns:inkscape="http://www.inkscape.org/namespaces/inkscape"
   xmlns:sodipodi="http://sodipodi.sourceforge.net/DTD/sodipodi-0.dtd"
   xmlns="http://www.w3.org/2000/svg"
   xmlns:svg="http://www.w3.org/2000/svg">
  <sodipodi:namedview
     id="namedview1910"
     pagecolor="#ffffff"
     bordercolor="#000000"
     borderopacity="0.25"
     inkscape:showpageshadow="2"
     inkscape:pageopacity="0.0"
     inkscape:pagecheckerboard="0"
     inkscape:deskcolor="#d1d1d1"
     inkscape:document-units="mm"
     showgrid="false"
     inkscape:zoom="5.2149125"
     inkscape:cx="49.185868"
     inkscape:cy="75.74432"
     inkscape:window-width="1920"
     inkscape:window-height="986"
     inkscape:window-x="-11"
     inkscape:window-y="-11"
     inkscape:window-maximized="1"
     inkscape:current-layer="layer1" />
  <defs
     id="defs1905">
    <filter
       inkscape:collect="always"
       style="color-interpolation-filters:sRGB"
       id="filter1019"
       x="-0.19201652"
       y="-0.19198347"
       width="1.384033"
       height="1.3839669">
      <feGaussianBlur
         inkscape:collect="always"
         stdDeviation="0.17900691"
         id="feGaussianBlur1021" />
    </filter>
  </defs>
  <g
     inkscape:label="Layer 1"
     inkscape:groupmode="layer"
     id="layer1">
    <g
       id="g28078"
       inkscape:label="file-rust"
       transform="matrix(3.165739,0,0,3.165739,-84.566913,-39.605605)">
      <path
         id="path28072"
         style="display:inline;fill:#c64b15;fill-opacity:1;stroke:none;stroke-width:0.463815;stroke-dasharray:none"
         d="m 30.042587,13.402283 c -0.729276,0 -1.316199,0.587566 -1.316199,1.317749 v 6.279203 c 0,0.730182 0.586923,1.317749 1.316199,1.317749 h 4.03903 c 0.729275,0 1.316199,-0.587567 1.316199,-1.317749 v -4.785238 -0.276985 -0.127641 h -0.0021 a 0.26781552,0.26781552 0 0 0 -0.07751,-0.187069 l -2.140955,-2.140954 a 0.26778874,0.26778874 0 0 0 -0.189135,-0.07906 h -0.126091 -0.278536 z" />
      <path
         id="path31165"
         style="fill:#9d380c;fill-opacity:1;stroke-width:0.0936971"
         class="st9"
         d="m 79.250764,16.973124 c -0.02903,0.0059 -0.02922,0.0057 -0.06511,0.03721 0.0084,0.07086 0.009,0.146669 0.0093,0.222209 0.0084,0.07086 0.0038,0.1384 0.0041,0.21394 3e-4,0.07554 0.01677,0.141404 -0.0072,0.230994 -0.04091,-0.05212 -0.0723,-0.08778 -0.10852,-0.131775 -0.05839,-0.06366 -0.108674,-0.132223 -0.175183,-0.191203 -0.03965,-0.03123 -0.07907,-0.0624 -0.14056,-0.03772 -0.01154,0.01748 -0.01877,0.04306 -0.04186,0.07803 -0.04801,0.179189 0.01137,0.469704 0.221175,0.608232 0.08274,0.0496 0.152904,0.09561 0.235644,0.14521 -0.01501,0.03029 -0.01739,0.06432 -0.02429,0.08992 -0.01371,0.05119 -0.03173,0.09386 -0.05013,0.136943 0,0 -0.0037,0.01309 10e-4,0.02119 0.0046,0.0081 0.0093,0.01619 0.01395,0.02429 0.0047,0.0081 0.01766,0.01172 0.03514,0.02325 0.03245,-0.01874 0.06147,-0.02485 0.08113,-0.04703 0.05555,-0.05371 0.110917,-0.10731 0.157097,-0.17725 0.120125,-0.166727 0.163565,-0.354312 0.168465,-0.551905 0.0028,-0.163878 -0.03161,-0.316841 -0.119373,-0.450101 -0.05496,-0.07646 -0.106577,-0.165971 -0.177766,-0.233061 0,0 -0.0043,-0.008 -0.01705,-0.01137 z m -2.025716,0.07131 c -0.06732,0.0029 -0.130757,0.02338 -0.188102,0.0646 -0.07303,0.04216 -0.131626,0.108502 -0.173116,0.186552 -0.06332,0.133933 -0.08034,0.273438 -0.05064,0.418579 0.04501,0.190397 0.138967,0.352597 0.245463,0.518315 0.01874,0.03246 0.04052,0.05221 0.0708,0.06718 0.05714,0.04275 0.117713,0.07289 0.178283,0.102836 0.03028,0.01497 0.05162,0.01353 0.07596,-5.16e-4 0.02306,-0.03497 0.01202,-0.07193 -0.0067,-0.104387 -0.03405,-0.07772 -0.05997,-0.16015 -0.0987,-0.24598 0.04057,-0.02342 0.05689,-0.03291 0.06718,-0.07131 0.06491,-0.03748 0.12203,-0.07019 0.17415,-0.111104 0.04868,-0.02811 0.09234,-0.06437 0.118856,-0.112138 0.103892,-0.157357 0.161559,-0.320461 0.137459,-0.512114 -0.0046,-0.0081 -0.0093,-0.01619 -0.01395,-0.02429 -0.0081,0.0047 -0.02596,-0.0069 -0.03876,-0.01034 -0.114857,0.04467 -0.212308,0.100973 -0.290938,0.189653 -0.03463,0.05245 -0.0785,0.08898 -0.117823,0.133325 -0.01155,0.01748 -0.03235,0.0185 -0.04857,0.02791 -0.0094,-0.01623 -0.02355,-0.04043 -0.02015,-0.05323 0.0044,-0.06743 0.0088,-0.134925 0.03411,-0.203605 0.03337,-0.07337 0.05399,-0.15003 0.08268,-0.23151 -0.0256,-0.0069 -0.04782,-0.02662 -0.06873,-0.02532 -0.02326,-0.0028 -0.04629,-0.0041 -0.06873,-0.0031 z m 1.16272,0.840775 c -0.0049,1.99e-4 -0.01208,0.0039 -0.02222,0.0098 -0.05086,0.06182 -0.05524,0.129428 -0.0677,0.201538 -0.01027,0.03839 -0.0078,0.07994 -0.01809,0.118339 -0.02527,0.06868 -0.02504,0.144631 -0.01654,0.215491 0.0025,0.04183 0.0053,0.08323 0.0078,0.125057 -0.01305,0.202277 -0.02984,0.417839 -0.04289,0.620117 -0.0069,0.0256 0.0075,0.04952 0.01344,0.07855 0.09988,-0.01439 0.186879,-0.03179 0.279569,-0.09612 0.04057,-0.02343 0.09394,-0.04372 0.142627,-0.07183 0.07771,-0.03405 0.149247,-0.09716 0.212907,-0.155547 0.03589,-0.03154 0.06741,-0.07127 0.08113,-0.122473 0.07453,-0.226956 0.05706,-0.443799 -0.07286,-0.650089 -0.0094,-0.01623 -0.01869,-0.0329 -0.03617,-0.04444 -0.133013,-0.117951 -0.280987,-0.205286 -0.454236,-0.224276 -0.0018,-0.0031 -0.0037,-0.0043 -0.0067,-0.0041 z m -0.187069,0.0021 c -0.128912,0.02033 -0.137336,0.02479 -0.267167,0.09974 -0.044,0.03622 -0.108804,0.0738 -0.191203,0.09973 -0.04526,0.01531 -0.08467,0.05938 -0.128674,0.0956 -0.135435,0.12147 -0.214903,0.264979 -0.203605,0.453202 0.0016,0.09645 0.01152,0.188244 0.06305,0.277503 0.02811,0.04869 0.07245,0.0878 0.116789,0.127124 0.05714,0.04275 0.113912,0.08592 0.171049,0.128674 0.07462,0.05429 0.167788,0.06524 0.252697,0.08113 0.0384,0.01029 0.07222,0.01229 0.105937,0.01447 0.0189,-0.454496 0.08783,-0.915821 0.08113,-1.377177 z m 0.964282,0.797368 c -0.01954,1.27e-4 -0.03917,0.0024 -0.05891,0.0057 -0.04618,0.06994 -0.04633,0.06975 5.17e-4,0.150895 0.115194,0.03087 0.200191,0.122392 0.288871,0.201022 0.08705,-0.01782 0.0953,-0.02268 0.0925,-0.140044 -0.04559,-0.06023 -0.110621,-0.09793 -0.164331,-0.153479 -0.04379,-0.04778 -0.100031,-0.06446 -0.158647,-0.06408 z m -1.892907,0.0155 c -0.0093,8.31e-4 -0.01772,0.0039 -0.02532,0.0083 -0.06617,0.01657 -0.119904,0.0363 -0.181384,0.06098 -0.08583,0.03873 -0.144574,0.10555 -0.181384,0.19172 -0.02651,0.04777 -0.02403,0.08939 0.02842,0.124023 0.02091,-0.0012 0.05001,-0.0069 0.08372,-0.0047 0.07395,-0.09679 0.161645,-0.169419 0.271818,-0.222209 0.0081,-0.0047 0.01619,-0.0093 0.02429,-0.01395 0.04057,-0.02343 0.06407,-0.05873 0.05219,-0.116789 -0.02726,-0.02145 -0.05181,-0.02922 -0.07235,-0.02739 z m 0.108003,0.277502 c -0.08583,0.03873 -0.154005,0.08884 -0.203605,0.171566 -0.03463,0.05245 -0.06466,0.112789 -0.04341,0.187068 0.01749,0.01158 0.04797,0.02657 0.077,0.02067 0.02092,-0.0013 0.04026,-0.02316 0.0646,-0.03721 0.01619,-0.0094 0.01985,-0.02234 0.02325,-0.03514 0.02183,-0.05588 0.0609,-0.100206 0.104903,-0.136426 l 0.05943,-0.06666 c -0.005,-0.08365 -0.0054,-0.08329 -0.08217,-0.10387 z m 1.583883,0.01292 c -0.0073,6.32e-4 -0.01587,0.0028 -0.02894,0.0036 -0.01154,0.01748 -0.02308,0.03523 -0.03462,0.05271 -0.0034,0.0128 -0.0068,0.02527 0.0072,0.04961 0.04217,0.07303 0.07168,0.143007 0.121956,0.211356 0.03153,0.03587 0.06998,0.0458 0.115239,0.03049 0.05086,-0.06182 0.02154,-0.131115 0.0015,-0.184485 -0.02594,-0.0824 -0.08459,-0.146374 -0.169499,-0.162264 -0.0048,-0.0013 -0.0085,-0.0014 -0.01292,-0.001 z m -0.292489,0.19327 c -0.01095,4.42e-4 -0.02244,0.0021 -0.03514,0.0047 -0.01497,0.03028 -0.01707,0.06429 -0.03204,0.09457 0.0712,0.06709 0.05283,0.185608 0.124024,0.252698 0.02902,-0.0059 0.05468,7.32e-4 0.08371,-0.0052 0.0069,-0.0256 0.02662,-0.04782 0.02532,-0.06873 0.0031,-0.08834 -0.01447,-0.175085 -0.07286,-0.238745 -0.02464,-0.02805 -0.0539,-0.04085 -0.09302,-0.03927 z m -1.02526,0.02946 c -0.05806,0.01188 -0.09869,0.0354 -0.133325,0.08785 -0.03463,0.05245 -0.06903,0.105021 -0.07803,0.164331 -0.0069,0.02559 0.01194,0.05785 0.03411,0.07751 0.03028,0.01497 0.06385,0.01707 0.09974,-0.01447 0.02183,-0.05588 0.05954,-0.120996 0.106971,-0.170016 0.03932,-0.04434 0.02893,-0.08155 -0.02946,-0.14521 z"
         transform="matrix(1.2634897,0,0,1.2634897,-66.720132,-4.7058306)" />
      <path
         id="path28074"
         style="color:#000000;display:inline;fill:#333333;fill-opacity:1;stroke-width:0.825466;stroke-linecap:round;stroke-linejoin:round;stroke-dasharray:none;filter:url(#filter1019)"
         d="m 32.944337,13.841244 c -0.123738,4.8e-5 -0.223968,0.100472 -0.223778,0.22421 v 1.731341 c 7.73e-4,0.123058 0.157097,0.28217 0.280158,0.282228 h 1.733411 c 0.199007,-4.52e-4 0.298558,-0.240897 0.158113,-0.381891 l -1.789792,-1.789791 c -0.04185,-0.04213 -0.09873,-0.0659 -0.158112,-0.06609 z"
         sodipodi:nodetypes="ccccccccc" />
      <path
         id="path28076"
         style="color:#000000;display:inline;fill:#e2642c;fill-opacity:1;stroke-width:0.987425;stroke-linecap:round;stroke-linejoin:round;stroke-dasharray:none"
         d="m 32.988144,13.402283 a 0.26778874,0.26778874 0 0 0 -0.267684,0.2682 v 2.142505 a 0.26781552,0.26781552 0 0 0 0.267684,0.266134 h 2.140954 a 0.26781552,0.26781552 0 0 0 0.189136,-0.45682 l -2.140955,-2.140954 a 0.26778874,0.26778874 0 0 0 -0.189135,-0.07906 z" />
    </g>
  </g>
</svg>
