<?xml version="1.0" encoding="UTF-8" standalone="no"?>
<!-- Created with Inkscape (http://www.inkscape.org/) -->

<svg
   width="128"
   height="128"
   viewBox="0 0 33.866666 33.866666"
   version="1.1"
   id="svg1908"
   inkscape:version="1.2.1 (9c6d41e410, 2022-07-14)"
   sodipodi:docname="text.svg"
   xmlns:inkscape="http://www.inkscape.org/namespaces/inkscape"
   xmlns:sodipodi="http://sodipodi.sourceforge.net/DTD/sodipodi-0.dtd"
   xmlns="http://www.w3.org/2000/svg"
   xmlns:svg="http://www.w3.org/2000/svg">
  <sodipodi:namedview
     id="namedview1910"
     pagecolor="#ffffff"
     bordercolor="#000000"
     borderopacity="0.25"
     inkscape:showpageshadow="2"
     inkscape:pageopacity="0.0"
     inkscape:pagecheckerboard="0"
     inkscape:deskcolor="#d1d1d1"
     inkscape:document-units="mm"
     showgrid="false"
     inkscape:zoom="1.84375"
     inkscape:cx="51.254237"
     inkscape:cy="64"
     inkscape:window-width="1920"
     inkscape:window-height="986"
     inkscape:window-x="-11"
     inkscape:window-y="-11"
     inkscape:window-maximized="1"
     inkscape:current-layer="layer1" />
  <defs
     id="defs1905">
    <filter
       inkscape:collect="always"
       style="color-interpolation-filters:sRGB"
       id="filter1019"
       x="-0.19201652"
       y="-0.19198347"
       width="1.384033"
       height="1.3839669">
      <feGaussianBlur
         inkscape:collect="always"
         stdDeviation="0.17900691"
         id="feGaussianBlur1021" />
    </filter>
  </defs>
  <g
     inkscape:label="Layer 1"
     inkscape:groupmode="layer"
     id="layer1">
    <g
       id="g16147"
       inkscape:label="text-unknown"
       transform="matrix(3.165739,0,0,3.165739,-84.566913,-39.605605)">
      <path
         id="path16141"
         style="display:inline;fill:#9bb1b1;fill-opacity:1;stroke:none;stroke-width:0.463815;stroke-dasharray:none"
         d="m 30.042587,13.402283 c -0.729276,0 -1.316199,0.587566 -1.316199,1.317749 v 6.279203 c 0,0.730182 0.586923,1.317749 1.316199,1.317749 h 4.03903 c 0.729275,0 1.316199,-0.587567 1.316199,-1.317749 v -4.785238 -0.276985 -0.127641 h -0.0021 a 0.26781552,0.26781552 0 0 0 -0.07751,-0.187069 l -2.140955,-2.140954 a 0.26778874,0.26778874 0 0 0 -0.189135,-0.07906 h -0.126091 -0.278536 z" />
      <path
         id="path16143"
         style="color:#000000;display:inline;fill:#333333;fill-opacity:1;stroke-width:0.825466;stroke-linecap:round;stroke-linejoin:round;stroke-dasharray:none;filter:url(#filter1019)"
         d="m 32.944337,13.841244 c -0.123738,4.8e-5 -0.223968,0.100472 -0.223778,0.22421 v 1.731341 c 7.73e-4,0.123058 0.157097,0.28217 0.280158,0.282228 h 1.733411 c 0.199007,-4.52e-4 0.298558,-0.240897 0.158113,-0.381891 l -1.789792,-1.789791 c -0.04185,-0.04213 -0.09873,-0.0659 -0.158112,-0.06609 z"
         sodipodi:nodetypes="ccccccccc" />
      <path
         id="path16145"
         style="color:#000000;display:inline;fill:#ced9d9;fill-opacity:1;stroke-width:0.987425;stroke-linecap:round;stroke-linejoin:round;stroke-dasharray:none"
         d="m 32.988144,13.402283 a 0.26778874,0.26778874 0 0 0 -0.267684,0.2682 v 2.142505 a 0.26781552,0.26781552 0 0 0 0.267684,0.266134 h 2.140954 a 0.26781552,0.26781552 0 0 0 0.189136,-0.45682 l -2.140955,-2.140954 a 0.26778874,0.26778874 0 0 0 -0.189135,-0.07906 z" />
      <path
         id="rect16149"
         style="fill:#5c8a8a;fill-opacity:1;stroke-width:0.099197;stroke-linecap:round;stroke-linejoin:round"
         d="m 30.843739,17.85459 c -0.206068,0 -0.372168,0.139218 -0.372168,0.312099 0,0.172881 0.1661,0.312099 0.372168,0.312099 h 0.816811 0.736501 c 0.02141,0.0032 0.04341,0.0052 0.06595,0.0052 h 0.817464 c 0.206068,0 0.372168,-0.139217 0.372168,-0.312099 0,-0.172881 -0.1661,-0.312098 -0.372168,-0.312098 h -0.743683 c -0.02141,-0.0032 -0.04341,-0.0052 -0.06595,-0.0052 H 31.66055 Z" />
      <path
         id="rect16165"
         style="fill:#5c8a8a;fill-opacity:1;stroke-width:0.099197;stroke-linecap:round;stroke-linejoin:round"
         d="m 30.843739,18.91429 c -0.206068,0 -0.372168,0.139217 -0.372168,0.312099 0,0.172881 0.1661,0.312098 0.372168,0.312098 h 0.638562 0.178249 0.639215 c 0.206069,0 0.372168,-0.139217 0.372168,-0.312098 0,-0.172882 -0.166099,-0.312099 -0.372168,-0.312099 H 31.66055 31.482301 Z" />
      <path
         id="path16168"
         style="fill:#5c8a8a;fill-opacity:1;stroke-width:0.099197;stroke-linecap:round;stroke-linejoin:round"
         d="m 30.843739,16.801717 c -0.206068,0 -0.372168,0.139218 -0.372168,0.312099 0,0.172881 0.1661,0.312099 0.372168,0.312099 h 0.816811 0.736501 c 0.02141,0.0032 0.04341,0.0052 0.06595,0.0052 h 0.817464 c 0.206068,0 0.372168,-0.139217 0.372168,-0.312099 0,-0.172881 -0.1661,-0.312098 -0.372168,-0.312098 h -0.743683 c -0.02141,-0.0032 -0.04341,-0.0052 -0.06595,-0.0052 H 31.66055 Z" />
    </g>
  </g>
</svg>
