<?xml version="1.0" encoding="UTF-8" standalone="no"?>
<!-- Created with Inkscape (http://www.inkscape.org/) -->

<svg
   width="128"
   height="128"
   viewBox="0 0 33.866666 33.866666"
   version="1.1"
   id="svg1908"
   inkscape:version="1.2.1 (9c6d41e410, 2022-07-14)"
   sodipodi:docname="application-x-java.svg"
   xmlns:inkscape="http://www.inkscape.org/namespaces/inkscape"
   xmlns:sodipodi="http://sodipodi.sourceforge.net/DTD/sodipodi-0.dtd"
   xmlns="http://www.w3.org/2000/svg"
   xmlns:svg="http://www.w3.org/2000/svg">
  <sodipodi:namedview
     id="namedview1910"
     pagecolor="#ffffff"
     bordercolor="#000000"
     borderopacity="0.25"
     inkscape:showpageshadow="2"
     inkscape:pageopacity="0.0"
     inkscape:pagecheckerboard="0"
     inkscape:deskcolor="#d1d1d1"
     inkscape:document-units="mm"
     showgrid="false"
     inkscape:zoom="1.84375"
     inkscape:cx="-13.288136"
     inkscape:cy="84.067797"
     inkscape:window-width="1920"
     inkscape:window-height="986"
     inkscape:window-x="-11"
     inkscape:window-y="-11"
     inkscape:window-maximized="1"
     inkscape:current-layer="layer1" />
  <defs
     id="defs1905">
    <filter
       inkscape:collect="always"
       style="color-interpolation-filters:sRGB"
       id="filter1019"
       x="-0.19201652"
       y="-0.19198347"
       width="1.384033"
       height="1.3839669">
      <feGaussianBlur
         inkscape:collect="always"
         stdDeviation="0.17900691"
         id="feGaussianBlur1021" />
    </filter>
  </defs>
  <g
     inkscape:label="Layer 1"
     inkscape:groupmode="layer"
     id="layer1">
    <g
       id="g5892"
       inkscape:label="file-java"
       transform="matrix(3.165739,0,0,3.165739,-84.566913,-39.605605)">
      <path
         id="path5886"
         style="display:inline;fill:#c36004;fill-opacity:1;stroke:none;stroke-width:0.463672;stroke-dasharray:none"
         d="m 30.042587,13.402283 c -0.729276,0 -1.316199,0.587566 -1.316199,1.317749 v 6.279203 c 0,0.730182 0.586923,1.317749 1.316199,1.317749 h 4.03903 c 0.729275,0 1.316199,-0.587567 1.316199,-1.317749 v -4.785238 -0.276985 -0.127641 h -0.0021 a 0.26781552,0.26781552 0 0 0 -0.07751,-0.187069 l -2.140955,-2.140954 a 0.26778874,0.26778874 0 0 0 -0.189135,-0.07906 h -0.126091 -0.278536 z" />
      <path
         id="path11869"
         style="fill:#944700;fill-opacity:1;stroke:none;stroke-width:0.205113;stroke-linecap:round;stroke-linejoin:round;stroke-dasharray:none;stroke-opacity:0.5"
         d="M 71.993909,16.83569 A 0.16318205,0.16318205 0 0 0 71.857317,16.922 c -0.0713,0.135497 -0.100179,0.259393 -0.0897,0.367644 0.01052,0.108254 0.05476,0.188371 0.08494,0.246681 0.03019,0.05831 0.04686,0.09385 0.05097,0.131161 0.0041,0.03731 -8e-6,0.08879 -0.04893,0.184842 a 0.16318205,0.16318205 0 0 0 0.07204,0.218139 0.16318205,0.16318205 0 0 0 0.218819,-0.06931 c 0.06922,-0.135904 0.0941,-0.259974 0.08223,-0.367643 -0.01183,-0.107675 -0.05509,-0.188336 -0.08494,-0.246003 -0.02986,-0.05766 -0.04537,-0.09172 -0.04893,-0.128439 -0.0036,-0.03672 8.89e-4,-0.08905 0.05164,-0.18552 a 0.16318205,0.16318205 0 0 0 -0.06932,-0.220859 0.16318205,0.16318205 0 0 0 -0.08223,-0.01699 z m 0.464821,0.31192 a 0.12240676,0.12240676 0 0 0 -0.103296,0.06524 c -0.05348,0.101639 -0.07446,0.196059 -0.06659,0.277262 0.0079,0.0812 0.04191,0.141101 0.06455,0.184841 0.02265,0.04374 0.03497,0.0692 0.03806,0.09718 0.003,0.02798 -0.0013,0.06726 -0.03806,0.13931 a 0.12240676,0.12240676 0 0 0 0.05368,0.163774 0.12240676,0.12240676 0 0 0 0.164454,-0.05368 c 0.05192,-0.101941 0.07075,-0.193777 0.06185,-0.274544 -0.0089,-0.08077 -0.04216,-0.141583 -0.06455,-0.184841 -0.0224,-0.04325 -0.03335,-0.06759 -0.03602,-0.09514 -0.0026,-0.02755 6.6e-4,-0.06628 0.03873,-0.138631 a 0.12240676,0.12240676 0 0 0 -0.05164,-0.167172 0.12240676,0.12240676 0 0 0 -0.06116,-0.0136 z m -0.750238,1.15186 c -0.240944,0 -0.43492,0.193974 -0.43492,0.43492 v 0.05776 0.303085 0.146106 a 0.92782539,0.44941563 0 0 0 0.927605,0.44987 0.92782539,0.44941563 0 0 0 0.928283,-0.44987 v -0.04349 h 0.119602 c 0.120471,0 0.217461,-0.09698 0.217461,-0.217459 V 18.8934 c 0,-0.12047 -0.09698,-0.21746 -0.217461,-0.21746 h -0.123679 c -0.02829,-0.213219 -0.209648,-0.376478 -0.430843,-0.376478 z m 1.420968,0.490643 h 0.04621 c 0.06746,0 0.122325,0.05418 0.122325,0.121641 v 0.05029 c 0,0.06746 -0.05486,0.121641 -0.122325,0.121641 h -0.04621 z"
         transform="matrix(1.2634897,0,0,1.2634897,-59.376712,-4.7058306)" />
      <path
         id="path5888"
         style="color:#000000;display:inline;fill:#333333;fill-opacity:1;stroke-width:0.825466;stroke-linecap:round;stroke-linejoin:round;stroke-dasharray:none;filter:url(#filter1019)"
         d="m 32.944337,13.841244 c -0.123738,4.8e-5 -0.223968,0.100472 -0.223778,0.22421 v 1.731341 c 7.73e-4,0.123058 0.157097,0.28217 0.280158,0.282228 h 1.733411 c 0.199007,-4.52e-4 0.298558,-0.240897 0.158113,-0.381891 l -1.789792,-1.789791 c -0.04185,-0.04213 -0.09873,-0.0659 -0.158112,-0.06609 z"
         sodipodi:nodetypes="ccccccccc" />
      <path
         id="path5890"
         style="color:#000000;display:inline;fill:#ee8320;fill-opacity:1;stroke-width:0.987425;stroke-linecap:round;stroke-linejoin:round;stroke-dasharray:none"
         d="m 32.988144,13.402283 a 0.26778874,0.26778874 0 0 0 -0.267684,0.2682 v 2.142505 a 0.26781552,0.26781552 0 0 0 0.267684,0.266134 h 2.140954 a 0.26781552,0.26781552 0 0 0 0.189136,-0.45682 l -2.140955,-2.140954 a 0.26778874,0.26778874 0 0 0 -0.189135,-0.07906 z" />
    </g>
  </g>
</svg>
