<?xml version="1.0" encoding="UTF-8" standalone="no"?>
<!-- Created with Inkscape (http://www.inkscape.org/) -->

<svg
   width="128"
   height="128"
   viewBox="0 0 33.866666 33.866666"
   version="1.1"
   id="svg1908"
   inkscape:version="1.2.1 (9c6d41e410, 2022-07-14)"
   sodipodi:docname="pdf.svg"
   xmlns:inkscape="http://www.inkscape.org/namespaces/inkscape"
   xmlns:sodipodi="http://sodipodi.sourceforge.net/DTD/sodipodi-0.dtd"
   xmlns="http://www.w3.org/2000/svg"
   xmlns:svg="http://www.w3.org/2000/svg">
  <sodipodi:namedview
     id="namedview1910"
     pagecolor="#ffffff"
     bordercolor="#000000"
     borderopacity="0.25"
     inkscape:showpageshadow="2"
     inkscape:pageopacity="0.0"
     inkscape:pagecheckerboard="0"
     inkscape:deskcolor="#d1d1d1"
     inkscape:document-units="mm"
     showgrid="false"
     inkscape:zoom="3.6875"
     inkscape:cx="43.525424"
     inkscape:cy="40.949153"
     inkscape:window-width="1920"
     inkscape:window-height="986"
     inkscape:window-x="-11"
     inkscape:window-y="-11"
     inkscape:window-maximized="1"
     inkscape:current-layer="layer1" />
  <defs
     id="defs1905">
    <filter
       inkscape:collect="always"
       style="color-interpolation-filters:sRGB"
       id="filter1019"
       x="-0.19201652"
       y="-0.19198347"
       width="1.384033"
       height="1.3839669">
      <feGaussianBlur
         inkscape:collect="always"
         stdDeviation="0.17900691"
         id="feGaussianBlur1021" />
    </filter>
  </defs>
  <g
     inkscape:label="Layer 1"
     inkscape:groupmode="layer"
     id="layer1">
    <g
       id="g3051"
       inkscape:label="file-pdf"
       transform="matrix(3.165739,0,0,3.165739,-84.566913,-39.605605)">
      <path
         id="path3045"
         style="display:inline;fill:#8f141a;fill-opacity:1;stroke:none;stroke-width:0.463815;stroke-dasharray:none"
         d="m 30.042587,13.402283 c -0.729276,0 -1.316199,0.587566 -1.316199,1.317749 v 6.279203 c 0,0.730182 0.586923,1.317749 1.316199,1.317749 h 4.03903 c 0.729275,0 1.316199,-0.587567 1.316199,-1.317749 v -4.785238 -0.276985 -0.127641 h -0.0021 a 0.26781552,0.26781552 0 0 0 -0.07751,-0.187069 l -2.140955,-2.140954 a 0.26778874,0.26778874 0 0 0 -0.189135,-0.07906 h -0.126091 -0.278536 z" />
      <path
         fill="#ff2116"
         d="m 30.430703,19.950315 c -0.187124,-0.187123 0.01534,-0.444257 0.564763,-0.717305 l 0.34571,-0.171804 0.134683,-0.294681 c 0.07407,-0.162075 0.184631,-0.426527 0.245682,-0.58767 l 0.110999,-0.29299 -0.07648,-0.216827 c -0.09405,-0.266612 -0.127593,-0.667261 -0.06793,-0.811326 0.08084,-0.195139 0.34559,-0.17512 0.450407,0.03407 0.08186,0.163366 0.07351,0.459222 -0.02354,0.832338 l -0.07956,0.30589 0.07008,0.118952 c 0.03854,0.06543 0.151117,0.220776 0.25017,0.345222 l 0.186168,0.231573 0.231656,-0.03023 c 0.735936,-0.09603 0.988003,0.06718 0.988003,0.301203 0,0.295351 -0.577868,0.31973 -1.063131,-0.0211 -0.109184,-0.0767 -0.184164,-0.152868 -0.184164,-0.152868 0,0 -0.304001,0.06189 -0.453676,0.102238 -0.154498,0.04165 -0.231577,0.06772 -0.457891,0.144112 0,0 -0.0794,0.115318 -0.131147,0.199143 -0.192504,0.311885 -0.417274,0.570352 -0.577796,0.664425 -0.179725,0.105327 -0.36814,0.112498 -0.463003,0.01765 z m 0.293661,-0.10491 c 0.105181,-0.065 0.318083,-0.31681 0.465456,-0.550512 l 0.05966,-0.09462 -0.271684,0.136601 c -0.419616,0.210978 -0.61158,0.409824 -0.51176,0.5301 0.05607,0.06757 0.123158,0.06197 0.25832,-0.02157 z m 2.725634,-0.765068 c 0.102881,-0.07206 0.08794,-0.217278 -0.02837,-0.275825 -0.09052,-0.04556 -0.163478,-0.05493 -0.398628,-0.05145 -0.144502,0.0098 -0.376865,0.03897 -0.416248,0.04783 0,0 0.127653,0.08822 0.184325,0.120651 0.07543,0.0431 0.258781,0.123083 0.392635,0.164049 0.132036,0.04042 0.20841,0.03616 0.26628,-0.0052 z m -1.095941,-0.455505 c -0.06226,-0.06546 -0.168139,-0.20206 -0.235274,-0.303573 -0.08781,-0.115156 -0.131837,-0.196394 -0.131837,-0.196394 0,0 -0.06418,0.206423 -0.116831,0.330643 l -0.164267,0.406024 -0.04763,0.0921 c 0,0 0.253196,-0.08303 0.38202,-0.11667 0.136443,-0.03563 0.413362,-0.09011 0.413362,-0.09011 z m -0.35318,-1.416344 c 0.01588,-0.133275 0.02261,-0.266354 -0.0202,-0.333461 -0.118766,-0.129842 -0.262127,-0.02156 -0.237845,0.287126 0.0082,0.10385 0.03397,0.281365 0.06846,0.390781 l 0.06272,0.198934 0.04415,-0.149831 c 0.02428,-0.08242 0.06151,-0.259504 0.08273,-0.393549 z"
         id="path3042"
         style="fill:#650b10;fill-opacity:1;stroke:#650b10;stroke-width:0.155496;stroke-dasharray:none;stroke-opacity:1"
         transform="translate(-1.1796028e-6)" />
      <path
         id="path3047"
         style="color:#000000;display:inline;fill:#333333;fill-opacity:1;stroke-width:0.825466;stroke-linecap:round;stroke-linejoin:round;stroke-dasharray:none;filter:url(#filter1019)"
         d="m 32.944337,13.841244 c -0.123738,4.8e-5 -0.223968,0.100472 -0.223778,0.22421 v 1.731341 c 7.73e-4,0.123058 0.157097,0.28217 0.280158,0.282228 h 1.733411 c 0.199007,-4.52e-4 0.298558,-0.240897 0.158113,-0.381891 l -1.789792,-1.789791 c -0.04185,-0.04213 -0.09873,-0.0659 -0.158112,-0.06609 z"
         sodipodi:nodetypes="ccccccccc" />
      <path
         id="path3049"
         style="color:#000000;display:inline;fill:#dd3537;fill-opacity:1;stroke-width:0.987425;stroke-linecap:round;stroke-linejoin:round;stroke-dasharray:none"
         d="m 32.988144,13.402283 a 0.26778874,0.26778874 0 0 0 -0.267684,0.2682 v 2.142505 a 0.26781552,0.26781552 0 0 0 0.267684,0.266134 h 2.140954 a 0.26781552,0.26781552 0 0 0 0.189136,-0.45682 l -2.140955,-2.140954 a 0.26778874,0.26778874 0 0 0 -0.189135,-0.07906 z" />
    </g>
  </g>
</svg>
